<svg xmlns="http://www.w3.org/2000/svg" viewBox="0 0 30 20"><rect width="30" height="20" fill="#003399"/><polygon points="15.00,2.35 15.26,3.14 16.09,3.14 15.42,3.64 15.68,4.43 15.00,3.94 14.32,4.43 14.58,3.64 13.91,3.14 14.74,3.14" fill="#ffcc00"/><polygon points="18.25,3.22 18.51,4.02 19.34,4.02 18.67,4.51 18.93,5.30 18.25,4.81 17.57,5.30 17.83,4.51 17.16,4.02 17.99,4.02" fill="#ffcc00"/><polygon points="20.63,5.60 20.89,6.39 21.72,6.39 21.05,6.89 21.31,7.68 20.63,7.19 19.95,7.68 20.21,6.89 19.54,6.39 20.37,6.39" fill="#ffcc00"/><polygon points="21.50,8.85 21.76,9.64 22.59,9.64 21.92,10.14 22.18,10.93 21.50,10.44 20.82,10.93 21.08,10.14 20.41,9.64 21.24,9.64" fill="#ffcc00"/><polygon points="20.63,12.10 20.89,12.89 21.72,12.89 21.05,13.39 21.31,14.18 20.63,13.69 19.95,14.18 20.21,13.39 19.54,12.89 20.37,12.89" fill="#ffcc00"/><polygon points="18.25,14.48 18.51,15.27 19.34,15.27 18.67,15.76 18.93,16.56 18.25,16.07 17.57,16.56 17.83,15.76 17.16,15.27 17.99,15.27" fill="#ffcc00"/><polygon points="15.00,15.35 15.26,16.14 16.09,16.14 15.42,16.64 15.68,17.43 15.00,16.94 14.32,17.43 14.58,16.64 13.91,16.14 14.74,16.14" fill="#ffcc00"/><polygon points="11.75,14.48 12.01,15.27 12.84,15.27 12.17,15.76 12.43,16.56 11.75,16.07 11.07,16.56 11.33,15.76 10.66,15.27 11.49,15.27" fill="#ffcc00"/><polygon points="9.37,12.10 9.63,12.89 10.46,12.89 9.79,13.39 10.05,14.18 9.37,13.69 8.69,14.18 8.95,13.39 8.28,12.89 9.11,12.89" fill="#ffcc00"/><polygon points="8.50,8.85 8.76,9.64 9.59,9.64 8.92,10.14 9.18,10.93 8.50,10.44 7.82,10.93 8.08,10.14 7.41,9.64 8.24,9.64" fill="#ffcc00"/><polygon points="9.37,5.60 9.63,6.39 10.46,6.39 9.79,6.89 10.05,7.68 9.37,7.19 8.69,7.68 8.95,6.89 8.28,6.39 9.11,6.39" fill="#ffcc00"/><polygon points="11.75,3.22 12.01,4.02 12.84,4.02 12.17,4.51 12.43,5.30 11.75,4.81 11.07,5.30 11.33,4.51 10.66,4.02 11.49,4.02" fill="#ffcc00"/></svg>
